<?xml version="1.0" encoding="utf-8"?>
<!-- Generator: Adobe Illustrator 24.1.2, SVG Export Plug-In . SVG Version: 6.00 Build 0)  -->
<svg version="1.1" id="Layer_1" xmlns="http://www.w3.org/2000/svg" xmlns:xlink="http://www.w3.org/1999/xlink" x="0px" y="0px"
	 viewBox="0 0 566.9 566.9" style="enable-background:new 0 0 566.9 566.9;" xml:space="preserve">
<g>
	<rect style="fill:#113559;" width="283.5" height="283.5"/>
	<rect x="283.5" style="fill:#21A5DE;" width="283.5" height="283.5"/>
	<rect y="283.5" style="fill:#ED1845;" width="283.5" height="283.5"/>
	<rect x="283.5" y="283.5" style="fill:#FFFFFF;" width="283.5" height="283.5"/>
</g>
<g>
	<g>
		<path style="fill:#FFFFFF;" d="M154.5,474.2h-85c-7.1,0-12.8,5.7-12.8,12.8v23.2h110.6V487C167.3,479.9,161.5,474.2,154.5,474.2z"
			/>
	</g>
</g>
<g>
	<g>
		<path style="fill:#FFFFFF;" d="M224.5,476l-77.6-77.6l15-14.9c2.5,2.2,6.3,2.1,8.6-0.3c2.5-2.5,2.5-6.4,0-8.9L138.2,342
			c-2.5-2.5-6.4-2.5-8.9,0c-2.5,2.5-2.5,6.4,0,8.9l-0.3-0.3l-41,41l0.3,0.3c-2.5-2.5-6.4-2.5-8.9,0c-2.5,2.5-2.5,6.4,0,8.9
			l32.3,32.3c2.5,2.5,6.5,2.5,8.9,0c2.5-2.5,2.5-6.4,0-8.9l0.3,0.3l15-14.9l77.6,77.6c3,3,8,3,11.1,0
			C227.5,484,227.5,479.1,224.5,476z"/>
	</g>
</g>
<g>
	<g>
		<path style="fill:#FFFFFF;" d="M154.5,190.8h-85c-7.1,0-12.8,5.7-12.8,12.8v23.2h110.6v-23.2C167.3,196.5,161.5,190.8,154.5,190.8
			z"/>
	</g>
</g>
<g>
	<g>
		<path style="fill:#FFFFFF;" d="M224.5,192.6L146.9,115l15-14.9c2.5,2.2,6.3,2.1,8.6-0.3c2.5-2.5,2.5-6.4,0-8.9l-32.3-32.3
			c-2.5-2.5-6.4-2.5-8.9,0c-2.5,2.5-2.5,6.4,0,8.9l-0.3-0.3l-41,41l0.3,0.3c-2.5-2.5-6.4-2.5-8.9,0s-2.5,6.4,0,8.9l32.3,32.3
			c2.5,2.5,6.5,2.5,8.9,0c2.5-2.5,2.5-6.4,0-8.9l0.3,0.3l15-14.9l77.6,77.6c3,3,8,3,11.1,0C227.5,200.6,227.5,195.6,224.5,192.6z"/>
	</g>
</g>
<g>
	<g>
		<path style="fill:#FFFFFF;" d="M437.9,190.8h-85c-7.1,0-12.8,5.7-12.8,12.8v23.2h110.6v-23.2C450.7,196.5,445,190.8,437.9,190.8z"
			/>
	</g>
</g>
<g>
	<g>
		<path style="fill:#FFFFFF;" d="M508,192.6L430.4,115l15-14.9c2.5,2.2,6.3,2.1,8.6-0.3c2.5-2.5,2.5-6.4,0-8.9l-32.3-32.3
			c-2.5-2.5-6.4-2.5-8.9,0c-2.5,2.5-2.5,6.4,0,8.9l-0.3-0.3l-41,41l0.3,0.3c-2.5-2.5-6.4-2.5-8.9,0s-2.5,6.4,0,8.9l32.3,32.3
			c2.5,2.5,6.5,2.5,8.9,0c2.5-2.5,2.5-6.4,0-8.9l0.3,0.3l15-14.9l77.6,77.6c3,3,8,3,11.1,0C511,200.6,511,195.6,508,192.6z"/>
	</g>
</g>
<g>
	<g>
		<path style="fill:#113559;" d="M437.9,474.2h-85c-7.1,0-12.8,5.7-12.8,12.8v23.2h110.6V487C450.7,479.9,445,474.2,437.9,474.2z"/>
	</g>
</g>
<g>
	<g>
		<path style="fill:#113559;" d="M508,476l-77.6-77.6l15-14.9c2.5,2.2,6.3,2.1,8.6-0.3c2.5-2.5,2.5-6.4,0-8.9L421.6,342
			c-2.5-2.5-6.4-2.5-8.9,0c-2.5,2.5-2.5,6.4,0,8.9l-0.3-0.3l-41,41l0.3,0.3c-2.5-2.5-6.4-2.5-8.9,0c-2.5,2.5-2.5,6.4,0,8.9
			l32.3,32.3c2.5,2.5,6.5,2.5,8.9,0c2.5-2.5,2.5-6.4,0-8.9l0.3,0.3l15-14.9l77.6,77.6c3,3,8,3,11.1,0C511,484,511,479.1,508,476z"/>
	</g>
</g>
</svg>
